# xmcd
#
# Track frame offsets: 
#        150
#        5821
#        18310
#        26061
#        40084
#        45105
#        55661
#        62001
#        76878
#        81028
#        107377
#        121378
#        125737
#        140386
#        145933
#        169261
#        185380
#        198568
#        220274
#        239011
#
# Disc length: 3472 seconds
#
# Revision: 0
# Processed by: cddbd v1.5.2PL0 Copyright (c) Steve Scherf et al.
# Submitted via: ExactAudioCopy v1.1
#
DISCID=110d8e14
DTITLE=Ry Cooder - Ditty Wah Ditty - Live in Cleveland 1972
DYEAR=2015
DGENRE=Blues
TTITLE0=Interview
TTITLE1=Police Dog Blues
TTITLE2=Ry Cooder Introduction
TTITLE3=Comin' In On A Wing And A Prayer
TTITLE4=Song Intro
TTITLE5=Great Dream From Heaven
TTITLE6=Sleepy John Estes Introduction
TTITLE7=Clean Up At Home
TTITLE8=Dedication To Radio Ranch Personnel
TTITLE9=Tattler
TTITLE10=You're Gonna Need Somebody On Your Bond
TTITLE11=Radio Announcement
TTITLE12=F.D.R. In Trinidad
TTITLE13=More Sleepy John Estes Stories
TTITLE14=Floating Bridge
TTITLE15=Billy The Kid
TTITLE16=Ditty Wah Ditty
TTITLE17=Dark Was The Night, Cold Was The Ground
TTITLE18=Jesus Is On The Mainline
TTITLE19=Goin' To Brownsville
EXTD=
EXTT0=
EXTT1=
EXTT2=
EXTT3=
EXTT4=
EXTT5=
EXTT6=
EXTT7=
EXTT8=
EXTT9=
EXTT10=
EXTT11=
EXTT12=
EXTT13=
EXTT14=
EXTT15=
EXTT16=
EXTT17=
EXTT18=
EXTT19=
PLAYORDER=
